<svg width="32" height="32" viewBox="0 0 32 32" fill="none" xmlns="http://www.w3.org/2000/svg">
<path d="M18.6669 27.9998H13.3335M24.0002 10.6665C24.0002 8.54477 23.1573 6.50994 21.657 5.00965C20.1568 3.50936 18.1219 2.6665 16.0002 2.6665C13.8785 2.6665 11.8436 3.50936 10.3433 5.00965C8.84304 6.50994 8.00019 8.54477 8.00019 10.6665C8.00019 14.7868 6.96081 17.6078 5.79974 19.4737C4.82036 21.0477 4.33067 21.8346 4.34862 22.0542C4.3685 22.2973 4.42 22.39 4.61589 22.5353C4.7928 22.6665 5.59031 22.6665 7.18533 22.6665H24.815C26.4101 22.6665 27.2076 22.6665 27.3845 22.5353C27.5804 22.39 27.6319 22.2973 27.6518 22.0542C27.6697 21.8346 27.18 21.0477 26.2006 19.4737C25.0396 17.6078 24.0002 14.7868 24.0002 10.6665Z" stroke="black" stroke-width="2" stroke-linecap="round" stroke-linejoin="round"/>
</svg>
